<?xml version="1.0" encoding="iso-8859-1"?>
<!-- Generator: Adobe Illustrator 19.0.0, SVG Export Plug-In . SVG Version: 6.00 Build 0)  -->
<svg version="1.1" id="Capa_1" xmlns="http://www.w3.org/2000/svg" xmlns:xlink="http://www.w3.org/1999/xlink" x="0px" y="0px"
	 viewBox="0 0 512 512" style="enable-background:new 0 0 512 512;" xml:space="preserve">
<g>
	<g>
		<g>
			<path d="M469.333,0H42.667C19.114,0.028,0.028,19.114,0,42.667v426.667C0.028,492.886,19.114,511.972,42.667,512h426.667
				c23.553-0.028,42.639-19.114,42.667-42.667V42.667C511.972,19.114,492.886,0.028,469.333,0z M494.933,469.333
				c-0.015,14.132-11.468,25.585-25.6,25.6H42.667c-14.132-0.015-25.585-11.468-25.6-25.6V42.667
				c0.015-14.132,11.468-25.585,25.6-25.6h426.667c14.132,0.015,25.585,11.468,25.6,25.6V469.333z"/>
			<path d="M452.267,34.133H409.6c-9.421,0.011-17.056,7.645-17.067,17.067v102.4c-0.005,4.711-3.822,8.529-8.533,8.533H128
				c-4.711-0.005-8.529-3.823-8.533-8.533V51.2c-0.011-9.421-7.645-17.056-17.067-17.067H59.733
				c-14.132,0.015-25.585,11.468-25.6,25.6v392.533c0.015,14.132,11.468,25.585,25.6,25.6h392.533
				c14.132-0.015,25.585-11.468,25.6-25.6V59.733C477.851,45.601,466.399,34.149,452.267,34.133z M460.8,452.267
				c-0.003,4.712-3.822,8.53-8.533,8.533H59.733c-4.711-0.005-8.529-3.823-8.533-8.533V59.733c0.005-4.711,3.822-8.529,8.533-8.533
				H102.4v102.4c0.015,14.132,11.468,25.585,25.6,25.6h256c14.132-0.015,25.585-11.468,25.6-25.6V51.2h42.667
				c4.712,0.003,8.53,3.822,8.533,8.533V452.267z"/>
			<path d="M137.181,139.743c0.573,0.918,1.165,1.823,1.777,2.715c1.597,1.664,3.802,2.606,6.108,2.608h110.014
				c0.366,0.114,0.745,0.181,1.128,0.2c0.405-0.014,0.807-0.082,1.195-0.2h109.53l0.002,0l0.003,0c0.068,0,0.135-0.04,0.203-0.042
				c1.079-0.015,2.145-0.234,3.142-0.647l0.014-0.003c0.144-0.062,0.232-0.188,0.371-0.256c0.869-0.405,1.664-0.954,2.351-1.624
				c0.618-0.898,1.217-1.808,1.797-2.731c0.303-0.822,0.477-1.687,0.517-2.562c0.019-0.233,0.135-0.432,0.135-0.669V42.667
				c0.001-2.263-0.898-4.434-2.499-6.035c-1.6-1.6-3.771-2.499-6.035-2.499H145.067c-2.263-0.001-4.434,0.898-6.035,2.499
				c-1.6,1.6-2.499,3.771-2.499,6.035v93.818v0.049c0.039,0.26,0.091,0.518,0.156,0.773
				C136.733,138.139,136.899,138.96,137.181,139.743z M259.492,128c-6.282-6.25-23.042-23.085-23.046-23.092
				c-3.328-3.339-8.732-3.348-12.071-0.021s-3.348,8.732-0.021,12.071c4.334,4.352,7.857,7.88,11.03,11.042h-75.169
				C172.12,111.915,200.176,85.333,256,85.333c55.839,0,83.894,26.595,95.79,42.667L259.492,128z M153.6,51.2h204.8v58.105
				C341.575,90.773,310.102,68.267,256,68.267s-85.574,22.507-102.4,41.039V51.2z"/>
			<path d="M136.533,349.867H93.867c-14.132,0.015-25.585,11.468-25.6,25.6v42.667c0.015,14.132,11.468,25.585,25.6,25.6h42.667
				c14.132-0.015,25.585-11.468,25.6-25.6v-42.667C162.118,361.335,150.665,349.882,136.533,349.867z M145.067,418.133
				c-0.005,4.711-3.822,8.529-8.533,8.533H93.867c-4.711-0.005-8.529-3.822-8.533-8.533v-42.667
				c0.005-4.711,3.822-8.529,8.533-8.533h42.667c4.711,0.005,8.529,3.822,8.533,8.533V418.133z"/>
			<path d="M418.133,349.867h-42.667c-14.132,0.015-25.585,11.468-25.6,25.6v42.667c0.015,14.132,11.468,25.585,25.6,25.6h42.667
				c14.132-0.015,25.585-11.468,25.6-25.6v-42.667C443.718,361.335,432.265,349.882,418.133,349.867z M426.667,418.133
				c-0.003,4.711-3.822,8.53-8.533,8.533h-42.667c-4.711-0.005-8.529-3.822-8.533-8.533v-42.667
				c0.005-4.711,3.822-8.529,8.533-8.533h42.667c4.711,0.003,8.53,3.822,8.533,8.533V418.133z"/>
		</g>
	</g>
</g>
<g>
</g>
<g>
</g>
<g>
</g>
<g>
</g>
<g>
</g>
<g>
</g>
<g>
</g>
<g>
</g>
<g>
</g>
<g>
</g>
<g>
</g>
<g>
</g>
<g>
</g>
<g>
</g>
<g>
</g>
</svg>
