<svg height="512" viewBox="0 0 64 64" width="512" xmlns="http://www.w3.org/2000/svg"><g id="Weighing_scale-weighting-weighing-poise-weigh" data-name="Weighing scale-weighting-weighing-poise-weigh"><path d="m31 20h2v26h-2z"/><path d="m18 16h28v2h-28z"/><path d="m23 8h18v2h-18z"/><path d="m45.08 4h-26.16l-.83 10h27.82zm-2.08 7a1 1 0 0 1 -1 1h-20a1 1 0 0 1 -1-1v-4a1 1 0 0 1 1-1h20a1 1 0 0 1 1 1z"/><path d="m45.55 48h-26.14l-6 6h37.39zm-23.55 4h-2v-2h2zm23 0h-2v-2h2z"/><path d="m12 56h40v4h-40z"/></g></svg>